<svg id="logo" xmlns="http://www.w3.org/2000/svg" width="159.999" height="66.488" viewBox="0 0 159.999 66.488">
  <path id="パス_47" data-name="パス 47" d="M26.971,27.9H50.22V15.747H26.971a24.892,24.892,0,1,0,0,49.784H50.22V53.374H26.971a12.744,12.744,0,0,1-11.188-6.657H47.811V34.56H15.783A12.746,12.746,0,0,1,26.971,27.9" transform="translate(0 -0.001)" fill="#221815"/>
  <path id="パス_48" data-name="パス 48" d="M93.354,65.531h-22.1A15.5,15.5,0,0,1,55.767,50.046V14.79H67.924V50.046a3.332,3.332,0,0,0,3.328,3.328h22.1Z" transform="translate(0 -0.001)" fill="#00479d"/>
  <path id="パス_49" data-name="パス 49" d="M125.628,65.531H97.789V53.374h27.839a3.328,3.328,0,1,0,0-6.656H112.467a15.485,15.485,0,1,1,0-30.97h26.688V27.905H112.467a3.328,3.328,0,1,0,0,6.656h13.161a15.485,15.485,0,0,1,0,30.97" transform="translate(0 -0.001)" fill="#221815"/>
  <rect id="長方形_7" data-name="長方形 7" width="13.025" height="51.699" transform="translate(146.251 14.789)" fill="#221815"/>
  <path id="パス_50" data-name="パス 50" d="M3.708,9.523V5.136L0,.121H2.839l2.04,2.955L6.928.121H9.759L6.05,5.139V9.524H3.708Z" transform="translate(0 -0.001)" fill="#00479d"/>
  <g id="グループ_10" data-name="グループ 10" transform="translate(0 -0.001)">
    <path id="パス_51" data-name="パス 51" d="M20.36.121v9.4H18.382L13.192,3.5V9.523H10.85V.121H13l5.02,5.748V.121Z" fill="#221815"/>
    <path id="パス_52" data-name="パス 52" d="M29.57.121h2.342V5.458a3.923,3.923,0,0,1-1.218,3.123,5.131,5.131,0,0,1-3.48,1.063,5.113,5.113,0,0,1-3.47-1.077,3.888,3.888,0,0,1-1.235-3.1V.121h2.349V5.526A2.038,2.038,0,0,0,25.5,7.1a2.387,2.387,0,0,0,1.686.592,2.439,2.439,0,0,0,1.733-.606,2.241,2.241,0,0,0,.65-1.723V.121Z" fill="#221815"/>
    <path id="パス_53" data-name="パス 53" d="M37.775.121h4.2A3.146,3.146,0,0,1,44.2.911a2.51,2.51,0,0,1,.855,1.913,2.43,2.43,0,0,1-1.615,2.3,3.316,3.316,0,0,1,1.346,1.735q.639,1.413,1.232,2.664h-2.57q-.229-.465-.8-1.77a5.472,5.472,0,0,0-.979-1.676,1.277,1.277,0,0,0-.872-.37h-.673V9.523H37.776V.121Zm2.342,1.723v2.14h1.238a1.455,1.455,0,0,0,.939-.279.966.966,0,0,0,.347-.8q0-1.064-1.339-1.063H40.117Z" fill="#221815"/>
    <path id="パス_54" data-name="パス 54" d="M53,7.552V8.811a4.682,4.682,0,0,1-2.834.834,3.867,3.867,0,0,1-2.679-.9,3.043,3.043,0,0,1-1-2.382,3.231,3.231,0,0,1,.942-2.392,3.266,3.266,0,0,1,2.4-.936,3.183,3.183,0,0,1,2.406.986,3.473,3.473,0,0,1,.878,2.642H48.547a1.821,1.821,0,0,0,.613,1.331,2.218,2.218,0,0,0,1.481.466A4.015,4.015,0,0,0,53,7.552ZM48.589,5.614h2.76q-.162-1.386-1.38-1.386t-1.38,1.386Z" fill="#221815"/>
    <path id="パス_55" data-name="パス 55" d="M58.785,3.506v1.42a4.12,4.12,0,0,0-2.12-.7q-.72,0-.72.491a.337.337,0,0,0,.152.252,7,7,0,0,0,1.161.527,3.4,3.4,0,0,1,1.426.927A1.811,1.811,0,0,1,59.1,7.575,1.848,1.848,0,0,1,58.428,9.1a3,3,0,0,1-1.918.539,5.333,5.333,0,0,1-2.275-.464V7.772a5.334,5.334,0,0,0,2.053.538q.969,0,.969-.47a.462.462,0,0,0-.179-.342,5.683,5.683,0,0,0-1.2-.561,3.3,3.3,0,0,1-1.4-.878,1.724,1.724,0,0,1,.347-2.48,3.086,3.086,0,0,1,1.908-.546,4.421,4.421,0,0,1,2.053.471Z" fill="#221815"/>
    <path id="パス_56" data-name="パス 56" d="M66.5,7.552V8.811a4.682,4.682,0,0,1-2.834.834,3.867,3.867,0,0,1-2.679-.9,3.043,3.043,0,0,1-1-2.382,3.231,3.231,0,0,1,.942-2.392,3.266,3.266,0,0,1,2.4-.936,3.183,3.183,0,0,1,2.406.986,3.473,3.473,0,0,1,.878,2.642H62.049a1.821,1.821,0,0,0,.613,1.331,2.218,2.218,0,0,0,1.481.466A4.015,4.015,0,0,0,66.5,7.552ZM62.091,5.614h2.76q-.162-1.386-1.38-1.386t-1.38,1.386Z" fill="#221815"/>
    <path id="パス_57" data-name="パス 57" d="M74.407,7.955v1.11a3.754,3.754,0,0,1-1.871.579q-.942,0-1.117-.713a3.682,3.682,0,0,1-2.093.713,1.812,1.812,0,0,1-1.259-.468,1.426,1.426,0,0,1-.518-1.089,1.76,1.76,0,0,1,.535-1.338,10.33,10.33,0,0,1,3.241-1.311q.067-1.064-1.1-1.063a3.268,3.268,0,0,0-2.342,1.063V3.809a5.132,5.132,0,0,1,2.753-.774q2.692,0,2.692,1.934v2.9c0,.3.11.445.33.445a1.577,1.577,0,0,0,.754-.357Zm-3.083.025V6.44a5.582,5.582,0,0,0-1.376.632.856.856,0,0,0-.374.713.672.672,0,0,0,.188.476.606.606,0,0,0,.458.2A1.656,1.656,0,0,0,71.324,7.98Z" fill="#221815"/>
    <path id="パス_58" data-name="パス 58" d="M77.371,3.17V4.987H77.4q.869-1.952,2.026-1.952a2.374,2.374,0,0,1,1.326.579L80.2,5.384a2.443,2.443,0,0,0-1.184-.471,1.368,1.368,0,0,0-1.168.859,4.342,4.342,0,0,0-.474,1v2.75h-2V3.17h2Z" fill="#221815"/>
    <path id="パス_59" data-name="パス 59" d="M86.953,7.787V9.221a6.351,6.351,0,0,1-2.147.424,3.867,3.867,0,0,1-2.679-.9,3.043,3.043,0,0,1-1-2.382,3.111,3.111,0,0,1,1.013-2.388,3.646,3.646,0,0,1,2.581-.94,6.192,6.192,0,0,1,2.14.417V4.941a3.552,3.552,0,0,0-1.629-.424,2.024,2.024,0,0,0-1.434.5,1.733,1.733,0,0,0-.538,1.335,1.816,1.816,0,0,0,.525,1.358,1.884,1.884,0,0,0,1.38.516A5.541,5.541,0,0,0,86.953,7.787Z" fill="#221815"/>
    <path id="パス_60" data-name="パス 60" d="M90.318.121V4.1h.027a2.486,2.486,0,0,1,2.012-1.063,2.294,2.294,0,0,1,1.673.643,2.388,2.388,0,0,1,.656,1.789V9.524h-2V5.891q0-1.389-1.029-1.388-.681,0-1.339.964V9.524h-2V.121h2Z" fill="#221815"/>
    <path id="パス_61" data-name="パス 61" d="M109.351.774V2.827a8.039,8.039,0,0,0-3.513-.868,3.6,3.6,0,0,0-2.551.835,2.778,2.778,0,0,0-.895,2.127,2.515,2.515,0,0,0,.895,2.006,3.492,3.492,0,0,0,2.356.767,3.9,3.9,0,0,0,1.555-.337V6.26h-1.36V4.537h3.709V8.38a4.1,4.1,0,0,1-1.7.912,7.593,7.593,0,0,1-2.258.353,5.971,5.971,0,0,1-4.035-1.356A4.348,4.348,0,0,1,99.977,4.84a4.379,4.379,0,0,1,1.578-3.49A6.074,6.074,0,0,1,105.644,0a8.564,8.564,0,0,1,3.708.774Z" fill="#221815"/>
    <path id="パス_62" data-name="パス 62" d="M113.43,3.17V4.987h.027q.869-1.952,2.026-1.952a2.374,2.374,0,0,1,1.326.579l-.552,1.77a2.442,2.442,0,0,0-1.185-.471,1.368,1.368,0,0,0-1.168.859,4.342,4.342,0,0,0-.474,1v2.75h-2V3.17Z" fill="#221815"/>
    <path id="パス_63" data-name="パス 63" d="M120.765,3.035a3.8,3.8,0,0,1,2.534.876,3.017,3.017,0,0,1,1.04,2.439,2.967,2.967,0,0,1-1.057,2.432,3.857,3.857,0,0,1-2.517.862,3.689,3.689,0,0,1-2.588-.92,3.085,3.085,0,0,1-1.007-2.388,3.037,3.037,0,0,1,1.026-2.4,3.745,3.745,0,0,1,2.568-.9Zm0,5.425q1.434,0,1.434-2.164,0-2.07-1.434-2.07a1.246,1.246,0,0,0-1.074.546,2.684,2.684,0,0,0-.387,1.564Q119.3,8.46,120.765,8.46Z" fill="#221815"/>
    <path id="パス_64" data-name="パス 64" d="M129.963,9.523V8.614a2.64,2.64,0,0,1-2.053,1.03A2.291,2.291,0,0,1,126.227,9a2.376,2.376,0,0,1-.646-1.77V3.17h2V7.1q0,1.211,1,1.21a1.261,1.261,0,0,0,.966-.44c.267-.293.4-.51.4-.649V3.17h2.012V9.524h-2Z" fill="#221815"/>
    <path id="パス_65" data-name="パス 65" d="M135.563,3.17v.552a2.781,2.781,0,0,1,3.91.25,3.286,3.286,0,0,1,.855,2.3,3.46,3.46,0,0,1-.858,2.453,2.956,2.956,0,0,1-2.272.923,3.231,3.231,0,0,1-1.635-.437v3.486h-2V3.17Zm0,1.8V7.888a1.932,1.932,0,0,0,1.157.417,1.416,1.416,0,0,0,1.155-.522,2.165,2.165,0,0,0,.427-1.41,2.243,2.243,0,0,0-.394-1.413,1.322,1.322,0,0,0-1.107-.505,2,2,0,0,0-1.238.512Z" fill="#221815"/>
    <path id="パス_66" data-name="パス 66" d="M148.748,3.035a3.8,3.8,0,0,1,2.534.876,3.017,3.017,0,0,1,1.04,2.439,2.967,2.967,0,0,1-1.057,2.432,3.857,3.857,0,0,1-2.517.862,3.689,3.689,0,0,1-2.588-.92,3.085,3.085,0,0,1-1.007-2.388,3.037,3.037,0,0,1,1.026-2.4,3.745,3.745,0,0,1,2.568-.9Zm0,5.425q1.434,0,1.434-2.164,0-2.07-1.434-2.07a1.246,1.246,0,0,0-1.074.546,2.684,2.684,0,0,0-.387,1.564Q147.287,8.46,148.748,8.46Z" fill="#221815"/>
    <path id="パス_67" data-name="パス 67" d="M155.618,3.17v.9a2.644,2.644,0,0,1,2.066-1.036,2.3,2.3,0,0,1,1.652.633A2.387,2.387,0,0,1,160,5.481V9.524h-2V5.649q0-1.273-.989-1.274-.706,0-1.393,1.05v4.1h-2V3.17h2Z" fill="#221815"/>
  </g>
</svg>
